<svg xmlns="http://www.w3.org/2000/svg" xmlns:xlink="http://www.w3.org/1999/xlink" viewBox="0 0 65.17 65.17"><defs><mask id="mask" x="0" y="0" width="65.17" height="65.17" maskUnits="userSpaceOnUse"><g id="mask-2"><polygon id="path-1" points="0 65.17 0 0 65.17 0 65.17 65.17 0 65.17" style="fill:#fff"/></g></mask></defs><title>Bubble_final</title><g id="Layer_1" data-name="Layer 1"><g style="mask:url(#mask)"><path id="Fill-1" d="M65.17,32.58A32.59,32.59,0,1,1,32.58,0,32.59,32.59,0,0,1,65.17,32.58" style="fill:#ff3b30"/></g><g id="Fill-4"><path d="M36.64,32.27l9.84-9.84a2.5,2.5,0,0,0-3.54-3.53L33.1,28.74,23.27,18.9a2.5,2.5,0,1,0-3.54,3.53l9.84,9.84-9.84,9.84a2.5,2.5,0,1,0,3.54,3.53l9.83-9.83,9.84,9.83a2.5,2.5,0,0,0,3.54-3.53Z" style="fill:#fff"/></g></g></svg>