<?xml version="1.0" encoding="UTF-8"?>
<svg width="59px" height="50px" viewBox="0 0 59 50" version="1.1" xmlns="http://www.w3.org/2000/svg" xmlns:xlink="http://www.w3.org/1999/xlink">
    <!-- Generator: Sketch 55.2 (78181) - https://sketchapp.com -->
    <title>Fill 1</title>
    <desc>Created with Sketch.</desc>
    <g id="Page-1" stroke="none" stroke-width="1" fill="none" fill-rule="evenodd">
        <g id="Intro" transform="translate(-1571.000000, -925.000000)" fill="#FFFFFF">
            <path d="M1621.98974,938.561089 C1621.9912,938.746216 1621.94094,938.886035 1621.81699,939.027803 C1619.49314,941.680475 1618.1287,944.768194 1617.65143,948.251988 C1617.58751,948.720651 1617.55823,949.196134 1617.53724,949.669669 C1617.52699,949.894744 1617.47087,950.001923 1617.22151,950 C1615.99273,949.991692 1614.76297,949.994128 1613.53419,949.997538 C1613.32826,949.998025 1613.22236,949.966359 1613.24969,949.705233 C1613.52687,947.057433 1614.29596,944.568452 1615.62136,942.254855 C1616.15181,941.329221 1616.76474,940.459613 1617.46258,939.650901 C1617.57482,939.521312 1617.68559,939.390262 1617.85542,939.19052 C1616.65396,939.19052 1615.54279,939.192469 1614.43162,939.188571 C1614.20226,939.188084 1614.17835,939.350313 1614.1476,939.510107 C1614.05879,939.964155 1613.95875,940.416741 1613.89385,940.873712 C1613.86066,941.112428 1613.77136,941.204991 1613.52541,941.219119 C1612.7734,941.261991 1612.02237,941.323862 1611.27183,941.393041 C1611.04491,941.41399 1611.0005,941.334093 1611.00148,941.12412 C1611.00929,939.537389 1611.00977,937.951145 1611,936.364901 C1610.99904,936.110595 1611.04589,935.999032 1611.33917,936 C1614.78347,936.010724 1618.22825,936.00975 1621.67352,936.001955 C1621.93557,936.001468 1622.00682,936.07698 1621.9995,936.338593 C1621.97852,937.0791 1621.98388,937.820095 1621.98974,938.561089 M1609.99813,948.664644 C1610.00633,948.920081 1609.91421,948.997471 1609.67933,948.993424 C1609.0393,948.981285 1608.39879,948.989378 1607.75829,948.99039 C1605.8604,948.993424 1603.96251,948.996459 1602.06462,949 C1602.06462,949 1602.05979,948.996965 1602.05979,948.996459 C1602.05497,948.31462 1602.05111,947.632781 1602.04629,946.950436 L1602.05304,946.927675 C1602.09114,946.950436 1602.11767,946.945378 1602.1278,946.895808 C1602.60577,946.850285 1603.08326,946.791105 1603.56267,946.764296 C1603.87135,946.747605 1604.00977,946.636831 1604.00833,946.288324 C1603.9982,943.909981 1603.99916,941.531637 1604.00543,939.152788 C1604.0064,938.81288 1603.87135,938.649502 1603.56026,938.587792 C1603.13342,938.502815 1602.71284,938.380408 1602.28552,938.295937 C1602.04147,938.247379 1601.97105,938.129524 1602.01012,937.875604 C1602.09066,937.356132 1602.15192,936.833119 1602.21076,936.309094 C1602.23391,936.101204 1602.29227,935.99903 1602.52715,936.000547 C1604.26781,936.012181 1606.00943,936.01471 1607.75057,936 C1608.05877,935.997006 1608.0361,936.161902 1608.03561,936.378391 C1608.03224,939.610045 1608.03031,942.841699 1608.03513,946.073353 C1608.0361,946.704104 1607.95121,946.711186 1608.64284,946.774413 C1609.02966,946.80982 1609.41647,946.856861 1609.80328,946.898843 C1609.961,946.965105 1610.00489,947.084477 1609.99958,947.262019 C1609.98704,947.729898 1609.98366,948.197777 1609.99813,948.664644 M1599.99525,938.576352 C1599.99721,938.761036 1599.94835,938.901377 1599.82426,939.042205 C1597.55838,941.627783 1596.20706,944.633895 1595.70043,948.022046 C1595.6164,948.581946 1595.57439,949.149155 1595.53628,949.714903 C1595.52309,949.91713 1595.47619,949.99802 1595.2583,949.996558 C1594.01592,949.988762 1592.77355,949.986813 1591.53166,950 C1591.24146,950.002406 1591.24683,949.858654 1591.2698,949.651067 C1591.6963,945.796577 1593.09452,942.358723 1595.67259,939.425704 C1595.72291,939.368204 1595.79961,939.322885 1595.8001,939.189854 C1594.69012,939.189854 1593.59919,939.192291 1592.50875,939.187418 C1592.29965,939.186443 1592.19657,939.255639 1592.16335,939.47687 C1592.08958,939.956854 1591.97917,940.431478 1591.90295,940.910974 C1591.87266,941.09907 1591.81404,941.197016 1591.60592,941.21066 C1590.81887,941.263288 1590.03231,941.326148 1589.24623,941.395344 C1589.0601,941.411912 1589.00098,941.350026 1589.00098,941.16924 C1589.00538,939.525112 1589.00782,937.880497 1589,936.235882 C1588.99903,935.975668 1589.15732,936.004905 1589.31951,936.004905 C1590.62003,936.004905 1591.92054,936.005393 1593.22057,936.005393 C1595.36822,936.005393 1597.51636,936.009778 1599.66402,936 C1599.91318,935.99857 1600.00649,936.045838 1599.99965,936.318722 C1599.97913,937.070616 1599.98744,937.823484 1599.99525,938.576352 M1588.97065,949 C1586.32818,948.996962 1583.6857,948.99443 1581.04322,948.991898 C1581.03842,948.367015 1581.03938,947.741627 1581.02449,947.116744 C1581.02017,946.935964 1581.09508,946.891402 1581.24154,946.879755 C1581.68475,946.845827 1582.12749,946.789618 1582.57118,946.771894 C1582.8713,946.759741 1583.00047,946.638208 1582.99951,946.313614 C1582.99423,943.932073 1582.99471,941.550532 1582.99903,939.168484 C1582.99951,938.840345 1582.88426,938.655514 1582.56446,938.593734 C1582.12797,938.509168 1581.69772,938.386115 1581.26267,938.291421 C1581.06915,938.249391 1580.96783,938.191663 1581.00913,937.939482 C1581.09988,937.383974 1581.16183,936.822897 1581.21993,936.262832 C1581.2401,936.064328 1581.31309,936.002043 1581.4994,936.002549 C1583.24489,936.009132 1584.98989,936.01217 1586.73538,936 C1587.03165,935.997991 1586.99756,936.177253 1586.99756,936.371706 C1586.999,939.571569 1587.00236,942.770926 1587.00476,945.970789 C1587.00572,946.789112 1586.96683,946.7248 1587.68279,946.793669 C1588.04629,946.828103 1588.40931,946.866589 1588.77234,946.900011 C1588.8919,946.911151 1589.00283,946.918747 1589,947.092944 C1588.98842,947.728461 1588.97978,948.363977 1588.97065,949 M1617.57514,925 L1583.42436,925 C1576.5623,925 1571,930.59829 1571,937.504143 L1571,947.860929 C1571,954.766783 1576.5623,960.365072 1583.42436,960.365072 L1599.7966,960.365072 C1600.3615,960.365072 1600.81937,960.825861 1600.81937,961.394866 L1600.81937,974.662005 C1600.81937,974.954237 1601.16376,975.108332 1601.37931,974.912347 L1616.47953,961.197385 C1617.0697,960.661793 1617.83579,960.365072 1618.63111,960.365072 C1624.90994,960.365072 1630,955.242533 1630,948.923138 L1630,937.504143 C1630,930.59829 1624.43671,925 1617.57514,925" id="Fill-1"></path>
        </g>
    </g>
</svg>